<?xml version="1.0" encoding="UTF-8" standalone="no"?>
<svg
   xmlns:dc="http://purl.org/dc/elements/1.1/"
   xmlns:cc="http://creativecommons.org/ns#"
   xmlns:rdf="http://www.w3.org/1999/02/22-rdf-syntax-ns#"
   xmlns:svg="http://www.w3.org/2000/svg"
   xmlns="http://www.w3.org/2000/svg"
   xmlns:sodipodi="http://sodipodi.sourceforge.net/DTD/sodipodi-0.dtd"
   xmlns:inkscape="http://www.inkscape.org/namespaces/inkscape"
   version="1.1"
   height="185.88297"
   width="157.5"
   id="svg4015"
   sodipodi:docname="jquery_alt.svg"
   inkscape:version="0.92.1 r15371">
  <metadata
     id="metadata4021">
    <rdf:RDF>
      <cc:Work
         rdf:about="">
        <dc:format>image/svg+xml</dc:format>
        <dc:type
           rdf:resource="http://purl.org/dc/dcmitype/StillImage" />
        <dc:title />
      </cc:Work>
    </rdf:RDF>
  </metadata>
  <defs
     id="defs4019" />
  <sodipodi:namedview
     pagecolor="#ffffff"
     bordercolor="#666666"
     borderopacity="1"
     objecttolerance="10"
     gridtolerance="10"
     guidetolerance="10"
     inkscape:pageopacity="0"
     inkscape:pageshadow="2"
     inkscape:window-width="1920"
     inkscape:window-height="1031"
     id="namedview4017"
     showgrid="false"
     inkscape:zoom="6.6846194"
     inkscape:cx="114.01006"
     inkscape:cy="66.969899"
     inkscape:window-x="0"
     inkscape:window-y="0"
     inkscape:window-maximized="1"
     inkscape:current-layer="svg4015" />
  <g
     id="g3741"
     transform="matrix(1.3156609,0,0,1.3156609,-0.78727572,-1.9681917)">
    <path
       style="fill:#131b28;fill-rule:nonzero;stroke-width:1.1156491"
       inkscape:connector-curvature="0"
       id="path3939"
       d="m 102.94275,127.97662 c 0,0 9.48413,0.12259 15.51309,0.12259 -4.57996,0 -12.14383,-0.0844 -15.5209,-0.12524 0.003,0 0.006,0.002 0.009,0.002 z" />
    <g
       transform="matrix(0.28531314,0,0,0.28531314,-28.622242,109.05709)"
       id="g4039">
      <path
         d="m 320.7798,18.971 h -15.356 c -0.85205,0 -1.698,0.68359 -1.8799,1.5161 0,0 -5.4516,25.222 -5.4516,25.222 0,0 -5.4517,25.222 -5.4517,25.222 -0.18066,0.83251 -1.0254,1.5137 -1.8774,1.5137 h -9.3176 -1.5515 c -10.753,0 -9.5093,-7.4365 -7.3071,-17.627 0.022,-0.1025 0.044,-0.20263 0.0659,-0.30761 0,0 0.24169,-1.2842 0.24169,-1.2842 0.0146,-0.083 0.0317,-0.16603 0.0451,-0.2417 0,0 0.49072,-2.6148 0.49072,-2.6148 0,0 0.52612,-2.8027 0.52612,-2.8027 0.15992,-0.84473 0.40283,-2.0801 0.56153,-2.8564 0,0 2.478,-12.109 2.478,-12.109 0,0 2.4805,-12.109 2.4805,-12.109 0.1709,-0.83496 -0.38819,-1.521 -1.2402,-1.521 h -15.762 c -0.85206,0 -1.6956,0.68604 -1.8701,1.5186 0,0 -3.3887,16.079 -3.3887,16.079 0,0 -3.3887,16.077 -3.3887,16.077 -0.003,0.007 -0.004,0.0171 -0.005,0.0244 0,0 -0.31494,1.4942 -0.31494,1.4942 -3.9038,17.822 -2.8686,34.817 18.347,35.349 0.3467,0.01 0.61525,0.0125 0.61525,0.0125 h 33.302 c 0.85206,0 1.6956,-0.6836 1.8738,-1.5186 0,0 7.1814,-33.757 7.1814,-33.757 0,0 7.1814,-33.76 7.1814,-33.76 0.17701,-0.83497 -0.37598,-1.5186 -1.228,-1.5186 z"
         id="path3897"
         inkscape:connector-curvature="0"
         style="fill:#131b28;fill-rule:nonzero" />
      <path
         d="m 156.3098,18.793 h -16.864 c -0.85326,0 -1.7041,0.68115 -1.8945,1.5112 0,0 -1.5991,7.0581 -1.5991,7.0581 0,0 -1.5991,7.0606 -1.5991,7.0606 -0.18799,0.83008 0.35523,1.5112 1.2085,1.5112 h 16.995 c 0.85205,0 1.6992,-0.68115 1.8823,-1.5137 0,0 1.5454,-7.0581 1.5454,-7.0581 0,0 1.5454,-7.0532 1.5454,-7.0532 v -0.002 c 0.18189,-0.83253 -0.36621,-1.5137 -1.2195,-1.5137 z"
         id="path3935"
         inkscape:connector-curvature="0"
         style="fill:#131b28;fill-rule:nonzero" />
      <path
         d="m 151.4198,40.756 h -16.997 c -0.85205,0 -1.7041,0.68117 -1.8921,1.5137 0,0 -2.3877,10.574 -2.3877,10.574 0,0 -2.3852,10.574 -2.3852,10.574 -0.18799,0.83253 -0.48829,2.1973 -0.66529,3.0322 0,0 -2.2937,10.793 -2.2937,10.793 0,0 -2.2925,10.793 -2.2925,10.793 -0.17822,0.83252 -0.54443,2.1777 -0.81787,2.9858 0,0 -3.175,9.4482 -8.5132,9.3408 -0.22705,-0.005 -0.448,-0.007 -0.6665,-0.0125 -2.5867,-0.0489 -4.6191,-0.0855 -4.6191,-0.0855 h -0.004 c -0.85083,-0.0125 -1.7066,0.65185 -1.9055,1.4795 0,0 -1.7627,7.4097 -1.7627,7.4097 0,0 -1.7603,7.4072 -1.7603,7.4072 -0.19775,0.82762 0.33692,1.5112 1.1841,1.5259 3.0274,0.0366 9.8071,0.11225 13.912,0.11225 13.334,0 20.363,-7.3877 24.869,-28.647 0,0 5.2734,-24.399 5.2734,-24.399 0,0 4.9463,-22.883 4.9463,-22.883 0.17945,-0.83251 -0.3711,-1.5137 -1.2232,-1.5137 z"
         id="path3943"
         inkscape:connector-curvature="0"
         style="fill:#131b28;fill-rule:nonzero" />
      <path
         d="m 464.3798,35.038 c 0,0 -0.70434,-2.9102 -0.70434,-2.9102 0,0 -0.69703,-2.981 -0.69703,-2.981 0,0 -0.35278,-1.5088 -0.35278,-1.5088 -1.3806,-5.3638 -5.4334,-8.4595 -14.233,-8.4595 0,0 -13.7,-0.0146 -13.7,-0.0146 0,0 -12.617,-0.0146 -12.617,-0.0146 h -1.0828 -13.114 c -0.85205,0 -1.6956,0.68115 -1.8713,1.5161 h -10e-4 c 0,0 -0.62743,2.9663 -0.62743,2.9663 0,0 -0.74096,3.5034 -0.74096,3.5034 0,0 -0.2063,0.98145 -0.2063,0.98145 0,0 -6.3928,29.946 -6.3928,29.946 0,0 -6.0681,28.428 -6.0681,28.428 -0.18065,0.83496 -0.24169,1.8579 -0.13792,2.2754 0.1025,0.41747 1.7383,0.75927 2.5915,0.75927 h 12.808 c 0.85327,0 1.9324,-0.15381 2.3962,-0.3418 0.46508,-0.18799 1.1523,-1.8628 1.322,-2.6978 0,0 2.2766,-11.262 2.2766,-11.262 0,0 2.279,-11.26 2.279,-11.26 10e-4,-0.005 0.002,-0.0146 0.004,-0.022 0,0 0.30396,-1.499 0.30396,-1.499 0,0 2.7612,-12.937 2.7612,-12.937 0,0 2.439,-11.426 2.439,-11.426 0.18068,-0.83007 1.0205,-1.5088 1.8713,-1.5112 0,0 40.3,-0.0195 40.3,-0.0195 0.85083,-0.002 1.3892,-0.67872 1.1951,-1.5112 z"
         id="path3965"
         inkscape:connector-curvature="0"
         style="fill:#131b28;fill-rule:nonzero" />
      <path
         d="m 516.2598,8.7244 c -0.85326,0.006 -2.2485,0.0113 -3.1018,0.0113 h -12.899 c -0.85328,0 -1.9458,0.57618 -2.4268,1.2805 0,0 -28.523,41.787 -28.523,41.787 -0.48218,0.70557 -1.0315,0.60059 -1.2207,-0.22949 0,0 -2.0984,-9.2065 -2.0984,-9.2065 -0.18921,-0.83252 -1.0437,-1.5112 -1.8958,-1.5112 h -18.337 c -0.85327,0 -1.3586,0.66895 -1.1255,1.4893 0,0 8.2166,28.784 8.2166,28.784 0.23437,0.82032 0.25147,2.168 0.0403,2.9932 0,0 -3.5815,13.931 -3.5815,13.931 -0.2124,0.82764 0.3125,1.5039 1.1658,1.5039 h 18.123 c 0.85205,0 1.7236,-0.67627 1.9348,-1.5039 0,0 3.5828,-13.931 3.5828,-13.931 0.21119,-0.82519 0.80445,-2.0605 1.3184,-2.7417 0,0 46.306,-61.459 46.306,-61.459 0.51393,-0.68115 0.2356,-1.2354 -0.61645,-1.2292 0,0 -4.8608,0.0317 -4.8608,0.0317 z"
         id="path3967"
         inkscape:connector-curvature="0"
         style="fill:#131b28;fill-rule:nonzero" />
      <path
         d="m 370.5798,44.774 c 0,0 -10e-4,-0.0171 -10e-4,-0.0171 -0.10737,0.92528 -0.96069,1.604 -1.8128,1.604 h -23.248 c -0.80323,0 -1.2122,-0.54688 -1.0938,-1.2207 0.007,-0.0195 0.01,-0.0366 0.022,-0.0537 0,0 -0.008,0.002 -0.0146,0.007 0.005,-0.0269 0.005,-0.0512 0.0125,-0.0781 0,0 0.044,-0.16358 0.10625,-0.39552 2.2204,-5.9033 6.7432,-9.7778 15.243,-9.7778 9.5691,0 11.437,4.6753 10.787,9.9316 z M 363.7597,17.94 c -29.841,0 -36.912,18.113 -40.879,36.394 -3.9673,18.633 -3.6255,36.055 27.253,36.055 h 1.0962 c 0.0976,-0.002 0.19777,-0.002 0.29542,-0.002 h 0.86426 0.31737 0.81055 c 0.11963,-0.002 0.23927,-0.002 0.36133,-0.002 0.30762,0 0.6189,-0.002 0.93017,-0.002 h 0.21852 c 1.2219,-0.002 2.4622,-0.008 3.7048,-0.0125 h 0.0623 c 8.1555,-0.0317 16.334,-0.0927 19.647,-0.11962 0.84717,-0.0125 1.676,-0.6958 1.8506,-1.5234 0,0 1.25,-6.1108 1.25,-6.1108 0,0 0.24293,-1.189 0.24293,-1.189 0,0 1.4917,-7.2876 1.4917,-7.2876 0.1709,-0.83496 -0.38696,-1.5186 -1.2402,-1.5186 h -27.761 c -11.041,0 -14.32,-2.9346 -13.112,-11.56 h 44.377 c 0,0 -0.004,0.005 -0.004,0.005 0.0113,0 0.0208,-0.005 0.0305,-0.005 0.70556,-0.0125 1.3574,-0.49804 1.6162,-1.145 0.0489,-0.1245 0.0904,-0.25391 0.10737,-0.38818 0,0 -0.005,0.005 -0.005,0.005 6.5894,-24.854 4.6997,-41.592 -23.528,-41.592 z"
         id="path3969"
         inkscape:connector-curvature="0"
         style="fill:#131b28;fill-rule:nonzero" />
      <path
         d="m 222.7198,44.679 c 0,0 -0.41993,1.4868 -0.41993,1.4868 0,0.005 -0.001,0.005 -0.001,0.005 0,0 -3.3508,11.875 -3.3508,11.875 0,0 -3.3496,11.873 -3.3496,11.873 -0.23193,0.82031 -1.1182,1.4917 -1.9727,1.4917 h -17.736 c -13.453,0 -16.729,-10.522 -13.453,-26.042 3.2752,-15.874 9.6973,-25.742 22.938,-26.741 18.094,-1.3648 21.714,11.362 17.345,26.052 z m 12.163,25.818 c 0,0 8.3618,-20.303 10.261,-32.031 2.59,-15.699 -5.27,-38.466 -35.63,-38.466 -30.187,0 -43.295,21.737 -48.297,45.367 -5.0012,23.801 1.5515,44.675 31.567,44.504 0,0 23.679,-0.0879 23.679,-0.0879 0,0 22.131,-0.0806 22.131,-0.0806 0.85205,-0.007 1.7236,-0.6836 1.9409,-1.5064 0,0 3.855,-14.705 3.855,-14.705 0.21485,-0.8252 -0.30639,-1.5039 -1.1584,-1.5088 0,0 -3.6951,-0.022 -3.6951,-0.022 0,0 -3.6938,-0.022 -3.6938,-0.022 -0.7251,-0.005 -1.1401,-0.47364 -1.0522,-1.0962 0.0159,-0.11225 0.0415,-0.22705 0.0904,-0.34668 z"
         id="path3971"
         inkscape:connector-curvature="0"
         style="fill:#131b28;fill-rule:nonzero" />
    </g>
    <path
       id="path3975"
       d="m 14.609583,25.260023 c -9.2989355,13.365476 -8.141338,30.753983 -1.037755,44.95508 0.168887,0.340474 0.345918,0.675481 0.520239,1.010511 0.111698,0.212453 0.216536,0.43035 0.332296,0.640081 0.0654,0.125232 0.138898,0.247853 0.207008,0.367707 0.121182,0.226064 0.245131,0.44125 0.370418,0.66187 0.220631,0.389495 0.446706,0.776268 0.678214,1.163064 0.128021,0.212442 0.254681,0.424895 0.386785,0.637348 0.25603,0.414006 0.518877,0.822568 0.787157,1.231119 0.111699,0.17432 0.22062,0.34864 0.335018,0.517505 0.370441,0.552927 0.749036,1.10312 1.139859,1.645136 0.0097,0.01395 0.02036,0.03001 0.03263,0.04351 0.06136,0.08713 0.129415,0.171598 0.192025,0.258764 0.337752,0.46575 0.686392,0.926067 1.039116,1.38095 0.129415,0.166143 0.260114,0.332296 0.390856,0.498439 0.314602,0.394951 0.634637,0.78718 0.960128,1.179353 0.121182,0.147087 0.243769,0.294152 0.366335,0.438517 0.437167,0.514794 0.882489,1.026854 1.337328,1.527993 0.0084,0.0078 0.01911,0.01908 0.02719,0.02722 0.01911,0.02176 0.03542,0.03537 0.05173,0.05712 0.443973,0.484827 0.898834,0.958755 1.359196,1.432716 0.142981,0.147087 0.288718,0.294175 0.435794,0.43854 0.356807,0.359529 0.719059,0.713625 1.085415,1.064976 0.148438,0.141632 0.295525,0.285997 0.443973,0.422184 0.4889,0.460317 0.983266,0.912456 1.48716,1.353729 0.0084,0.0078 0.01492,0.01394 0.02315,0.01908 0.08577,0.07631 0.17432,0.147087 0.258764,0.22062 0.443972,0.384051 0.896111,0.76538 1.350939,1.141309 0.185209,0.149809 0.373162,0.296896 0.559732,0.446694 0.37179,0.296886 0.747664,0.59106 1.126248,0.879779 0.200203,0.152532 0.400395,0.305052 0.60196,0.457595 0.418089,0.307774 0.838912,0.610115 1.263807,0.907011 0.155243,0.111699 0.305063,0.22062 0.460306,0.326841 0.04351,0.03001 0.08312,0.05991 0.126626,0.08992 0.403129,0.277819 0.815763,0.544738 1.227102,0.811679 0.177043,0.117144 0.352724,0.239675 0.531139,0.354074 0.631903,0.400395 1.273401,0.795346 1.921594,1.176675 0.17567,0.100855 0.354084,0.198831 0.531115,0.299619 0.476662,0.275097 0.956045,0.544749 1.4422,0.808957 0.262847,0.141632 0.532499,0.275097 0.798069,0.411284 0.343184,0.179765 0.683658,0.362251 1.032298,0.536572 0.07893,0.03827 0.16071,0.07631 0.238325,0.114354 0.140282,0.06805 0.281914,0.133465 0.422184,0.204286 0.540655,0.258764 1.085415,0.512072 1.635654,0.757213 0.117143,0.05177 0.230158,0.103533 0.345918,0.155254 0.630542,0.275086 1.266485,0.539294 1.907983,0.792613 0.153892,0.06259 0.309146,0.122576 0.4644,0.182476 0.593771,0.228808 1.195753,0.454883 1.800434,0.667325 0.07629,0.02726 0.149821,0.05183 0.226076,0.07888 0.663242,0.23153 1.333312,0.4467 2.007387,0.65643 0.160698,0.0463 0.322757,0.0981 0.484816,0.14436 0.686392,0.20701 1.364662,0.45486 2.072765,0.58561 C 97.370508,109.64121 110.43364,74.414474 110.43364,74.414474 99.46235,88.70817 79.987579,92.477948 61.535859,88.280876 60.837217,88.1229 60.159036,87.905003 59.476705,87.703439 c -0.17297,-0.05177 -0.343196,-0.103421 -0.513432,-0.155254 -0.665954,-0.204276 -1.326507,-0.419451 -1.982844,-0.645526 -0.08994,-0.03258 -0.181136,-0.06538 -0.272385,-0.09807 -0.588327,-0.207009 -1.16987,-0.424907 -1.748669,-0.648248 -0.163431,-0.06538 -0.326863,-0.128021 -0.490272,-0.193387 -0.634637,-0.250586 -1.265146,-0.512072 -1.887566,-0.784435 -0.128021,-0.05455 -0.250586,-0.11171 -0.377246,-0.166165 -0.535221,-0.242408 -1.064987,-0.487539 -1.592031,-0.740858 -0.152521,-0.07352 -0.305063,-0.144354 -0.460317,-0.22062 -0.413906,-0.201932 -0.823349,-0.417252 -1.231677,-0.626994 -0.273334,-0.143919 -0.55113,-0.280028 -0.822233,-0.430641 -0.498695,-0.26664 -0.988465,-0.544437 -1.476004,-0.827812 -0.165116,-0.0926 -0.332463,-0.18185 -0.498695,-0.277796 -0.648192,-0.381552 -1.288575,-0.776492 -1.922263,-1.17701 -0.175157,-0.111565 -0.345852,-0.230939 -0.518777,-0.345851 -0.459648,-0.296763 -0.917064,-0.599104 -1.367786,-0.909254 -0.149497,-0.101524 -0.293416,-0.209742 -0.440681,-0.310151 -0.435104,-0.307919 -0.865744,-0.619185 -1.293038,-0.934914 -0.194123,-0.143918 -0.384899,-0.288953 -0.573443,-0.432871 -0.391593,-0.30011 -0.780955,-0.602451 -1.166969,-0.912601 -0.17432,-0.138899 -0.348641,-0.277819 -0.520239,-0.41674 -0.490272,-0.403106 -0.975099,-0.808957 -1.453133,-1.225652 -0.05034,-0.04351 -0.104871,-0.08713 -0.159337,-0.133465 -0.517505,-0.454861 -1.025493,-0.920634 -1.527993,-1.389095 -0.145726,-0.138898 -0.287368,-0.275108 -0.430361,-0.414017 -0.37179,-0.354085 -0.738125,-0.710892 -1.097676,-1.075876 -0.144354,-0.144365 -0.288719,-0.285997 -0.430351,-0.430362 -0.457583,-0.468472 -0.907011,-0.942422 -1.346923,-1.424461 -0.02175,-0.02454 -0.0449,-0.0463 -0.06666,-0.07084 -0.465772,-0.509349 -0.920634,-1.029576 -1.366001,-1.555214 -0.121181,-0.144354 -0.238325,-0.283264 -0.358179,-0.424895 -0.332296,-0.400396 -0.66187,-0.806235 -0.983277,-1.214831 -0.12049,-0.147265 -0.24098,-0.297878 -0.360355,-0.449606 -0.38713,-0.502042 -0.765335,-1.002969 -1.135731,-1.511705 C 17.359937,51.154718 13.679745,31.88188 21.867494,16.054166"
       inkscape:connector-curvature="0"
       style="fill:#0868ac;fill-rule:nonzero;stroke-width:1.1156491" />
    <path
       id="path3977"
       d="m 43.47533,13.999777 c -6.72491,9.677475 -6.359981,22.632057 -1.114021,32.867022 0.879779,1.71598 1.86849,3.380194 2.974321,4.965419 1.007777,1.443539 2.124531,3.162308 3.461859,4.322583 0.484839,0.53386 0.991455,1.054087 1.508916,1.566148 0.130664,0.133465 0.264196,0.261486 0.397673,0.392229 0.502533,0.48755 1.013232,0.966933 1.541604,1.432716 0.02175,0.01629 0.04087,0.03804 0.06262,0.05456 0.0056,0.0056 0.01116,0.0078 0.01492,0.01394 0.584243,0.512072 1.187497,1.005077 1.800435,1.489838 0.136243,0.103421 0.271013,0.212464 0.408562,0.318685 0.614209,0.471217 1.240713,0.934245 1.883438,1.375484 0.01911,0.01395 0.03542,0.02722 0.05453,0.04083 0.283275,0.196109 0.571994,0.378606 0.85934,0.566538 0.137504,0.08992 0.268303,0.18522 0.407212,0.269652 0.458956,0.294163 0.923334,0.58016 1.3959,0.855257 0.06679,0.04083 0.132071,0.07631 0.19747,0.114354 0.407212,0.23423 0.819846,0.46575 1.233908,0.689103 0.144354,0.08167 0.29143,0.152531 0.438517,0.228797 0.285997,0.149798 0.571993,0.302341 0.863423,0.446695 0.04351,0.02175 0.08855,0.04083 0.130665,0.06002 0.592421,0.291429 1.190286,0.571993 1.800435,0.838912 0.130664,0.05723 0.265569,0.108887 0.397662,0.16342 0.487549,0.207009 0.980555,0.408573 1.476226,0.599238 0.209731,0.07899 0.422173,0.155253 0.631904,0.231508 0.449428,0.166142 0.900206,0.318685 1.355067,0.471206 0.205637,0.06538 0.407212,0.133465 0.612849,0.196119 0.646876,0.201554 1.285562,0.454862 1.959749,0.566538 C 104.95286,74.889098 112.9688,48.155691 112.9688,48.155691 105.74274,58.563135 91.749154,63.52822 76.816191,59.652455 76.152948,59.478135 75.499279,59.287471 74.849636,59.083173 74.650805,59.023263 74.456046,58.957941 74.258576,58.892531 73.79691,58.74271 73.337954,58.584734 72.883093,58.418581 72.674734,58.342271 72.466375,58.26606 72.262078,58.187072 71.763628,57.996408 71.270623,57.797577 70.781723,57.590568 70.648269,57.533342 70.51342,57.481687 70.382677,57.421699 69.76984,57.154768 69.166508,56.874227 68.571421,56.580053 68.264997,56.430255 67.964017,56.272279 67.663048,56.117025 67.488728,56.027215 67.313047,55.93726 67.138716,55.847373 66.751942,55.637642 66.367903,55.419744 65.989262,55.199125 65.899453,55.147359 65.805415,55.09827 65.714166,55.04386 65.24431,54.768763 64.781271,54.4855 64.322282,54.194059 64.18065,54.104137 64.044463,54.006117 63.90282,53.913506 63.600479,53.717398 63.298149,53.518567 63.001264,53.317002 62.361172,52.875752 61.738796,52.412713 61.124631,51.944196 60.982999,51.832486 60.841367,51.723577 60.702458,51.6119 54.16587,46.450907 48.984795,39.398889 46.521442,31.401917 43.93983,23.108181 44.496539,13.798089 48.969176,6.2429138"
       inkscape:connector-curvature="0"
       style="fill:#0868ac;fill-rule:nonzero;stroke-width:1.1156491" />
    <path
       id="path3979"
       d="m 67.75297,5.5866667 c -3.964459,5.8342873 -4.353932,13.0798703 -1.602965,19.5238593 2.900799,6.839375 8.845424,12.205201 15.783088,14.748881 0.285997,0.106321 0.571993,0.201553 0.862073,0.299608 0.126626,0.03816 0.251936,0.08178 0.379968,0.119787 0.408562,0.128021 0.814402,0.27783 1.236585,0.356818 19.172431,3.70429 24.372471,-9.83824 25.756991,-11.831459 -4.55542,6.55879 -12.210779,8.133082 -21.603429,5.853365 -0.741907,-0.180735 -1.557446,-0.448491 -2.272577,-0.701744 -0.917064,-0.326885 -1.82074,-0.699512 -2.698755,-1.121227 -1.667896,-0.801036 -3.257696,-1.773882 -4.731468,-2.8873 C 70.45718,23.570205 65.235943,11.404052 70.720474,1.4959719"
       inkscape:connector-curvature="0"
       style="fill:#0868ac;fill-rule:nonzero;stroke-width:1.1156491" />
  </g>
</svg>
