<?xml version="1.0" encoding="UTF-8" standalone="no"?>
<!-- Created with Inkscape (http://www.inkscape.org/) -->

<svg
   xmlns:dc="http://purl.org/dc/elements/1.1/"
   xmlns:cc="http://creativecommons.org/ns#"
   xmlns:rdf="http://www.w3.org/1999/02/22-rdf-syntax-ns#"
   xmlns:svg="http://www.w3.org/2000/svg"
   xmlns="http://www.w3.org/2000/svg"
   xmlns:sodipodi="http://sodipodi.sourceforge.net/DTD/sodipodi-0.dtd"
   xmlns:inkscape="http://www.inkscape.org/namespaces/inkscape"
   width="41.671875mm"
   height="46.989933mm"
   viewBox="0 0 41.671875 46.989933"
   version="1.1"
   id="svg3983"
   inkscape:version="0.92.1 r15371"
   sodipodi:docname="node.svg">
  <defs
     id="defs3977" />
  <sodipodi:namedview
     id="base"
     pagecolor="#ffffff"
     bordercolor="#666666"
     borderopacity="1.0"
     inkscape:pageopacity="0.0"
     inkscape:pageshadow="2"
     inkscape:zoom="3.959798"
     inkscape:cx="70.641184"
     inkscape:cy="90.609326"
     inkscape:document-units="mm"
     inkscape:current-layer="layer1"
     showgrid="false"
     inkscape:window-width="1920"
     inkscape:window-height="1031"
     inkscape:window-x="0"
     inkscape:window-y="0"
     inkscape:window-maximized="1" />
  <metadata
     id="metadata3980">
    <rdf:RDF>
      <cc:Work
         rdf:about="">
        <dc:format>image/svg+xml</dc:format>
        <dc:type
           rdf:resource="http://purl.org/dc/dcmitype/StillImage" />
        <dc:title />
      </cc:Work>
    </rdf:RDF>
  </metadata>
  <g
     inkscape:label="Layer 1"
     inkscape:groupmode="layer"
     id="layer1"
     transform="translate(-100.08681,-111.73122)">
    <g
       id="g3681"
       transform="matrix(1.2218395,0,0,1.2218395,-26.825442,-29.99851)">
      <path
         d="m 120.91922,154.45536 c -0.51506,0 -1.02729,-0.13441 -1.47814,-0.39547 l -4.70535,-2.78412 c -0.70238,-0.39299 -0.35948,-0.53234 -0.12771,-0.61313 0.93733,-0.32526 1.12713,-0.4004 2.1276,-0.96767 0.10407,-0.0589 0.24236,-0.0363 0.34996,0.0268 l 3.61491,2.14595 c 0.13088,0.0727 0.31574,0.0727 0.43639,0 l 14.09347,-8.13435 c 0.13124,-0.0748 0.2152,-0.22578 0.2152,-0.38135 v -16.26447 c 0,-0.1591 -0.084,-0.30762 -0.21873,-0.38841 l -14.08747,-8.12729 c -0.13018,-0.0762 -0.30304,-0.0762 -0.43427,0 l -14.08395,8.12976 c -0.13688,0.0783 -0.22366,0.23178 -0.22366,0.38594 v 16.26447 c 0,0.15557 0.0868,0.30303 0.22225,0.37677 l 3.8608,2.23061 c 2.0948,1.0474 3.3775,-0.18627 3.3775,-1.42558 v -16.05809 c 0,-0.22719 0.18238,-0.40604 0.40957,-0.40604 h 1.78682 c 0.22366,0 0.40852,0.17885 0.40852,0.40604 v 16.05809 c 0,2.79577 -1.52259,4.39914 -4.17301,4.39914 -0.81457,0 -1.45592,0 -3.24626,-0.88229 l -3.6957,-2.12761 c -0.91299,-0.52775 -1.47814,-1.51447 -1.47814,-2.57104 v -16.26447 c 0,-1.05657 0.56515,-2.04329 1.47814,-2.56857 l 14.09312,-8.14388 c 0.89182,-0.50412 2.07715,-0.50412 2.96192,0 l 14.09241,8.14388 c 0.91264,0.52775 1.48026,1.512 1.48026,2.56857 v 16.26447 c 0,1.05657 -0.56762,2.03976 -1.48026,2.57104 l -14.09241,8.13682 c -0.4505,0.26106 -0.96167,0.39547 -1.48378,0.39547"
         style="fill:#689f63;fill-opacity:1;fill-rule:nonzero;stroke:none;stroke-width:0.35277775"
         id="path22"
         inkscape:connector-curvature="0" />
      <path
         d="m 125.27256,143.25015 c -6.16726,0 -7.45913,-2.83069 -7.45913,-5.20524 0,-0.22578 0.18133,-0.40605 0.40711,-0.40605 h 1.82209 c 0.20356,0 0.37324,0.14641 0.40499,0.34502 0.27517,1.85491 1.09538,2.79118 4.82494,2.79118 2.96898,0 4.23298,-0.67169 4.23298,-2.24684 0,-0.90805 -0.35842,-1.58221 -4.9724,-2.03412 -3.85621,-0.38135 -6.24134,-1.23331 -6.24134,-4.318 0,-2.84374 2.39677,-4.53954 6.41561,-4.53954 4.51485,0 6.74899,1.56703 7.03192,4.92901 0.0106,0.11606 -0.0303,0.22719 -0.10759,0.31362 -0.0773,0.0808 -0.18486,0.13017 -0.29845,0.13017 h -1.82916 c -0.18944,0 -0.35701,-0.13476 -0.39546,-0.31856 -0.43886,-1.95192 -1.50601,-2.57563 -4.40126,-2.57563 -3.24167,0 -3.61844,1.12924 -3.61844,1.97556 0,1.02517 0.4445,1.32327 4.82142,1.90253 4.33105,0.57256 6.38845,1.38324 6.38845,4.42736 0,3.07058 -2.56046,4.82953 -7.02628,4.82953"
         style="fill:#689f63;fill-opacity:1;fill-rule:nonzero;stroke:none;stroke-width:0.35277775"
         id="path26"
         inkscape:connector-curvature="0" />
    </g>
  </g>
</svg>
